<svg width="495" height="165" viewBox="0 0 495 165" xmlns="http://www.w3.org/2000/svg">
  <defs>
    <linearGradient id="bg" x1="0%" y1="0%" x2="100%" y2="100%">
      <stop offset="0%" style="stop-color:#0d0d08"/>
      <stop offset="100%" style="stop-color:#131310"/>
    </linearGradient>
    <linearGradient id="gold" x1="0%" y1="0%" x2="100%" y2="0%">
      <stop offset="0%" style="stop-color:#c9a84c"/>
      <stop offset="100%" style="stop-color:#e8c97a"/>
    </linearGradient>
  </defs>

  <rect width="495" height="165" rx="12" fill="url(#bg)"/>
  <rect x="0.5" y="0.5" width="494" height="164" rx="11.5" fill="none" stroke="#2a2a20" stroke-width="1"/>
  <rect x="20" y="18" width="40" height="2" rx="1" fill="url(#gold)"/>

  <text x="20" y="46" font-family="Georgia, serif" font-size="17" font-weight="700" fill="#c9a84c" letter-spacing="0.5">Darshita Bansal</text>
  <text x="20" y="63" font-family="'Segoe UI', sans-serif" font-size="10.5" fill="#888" letter-spacing="2">MOBILE · FULL-STACK · AI &amp; DATA SCIENCE</text>
  <line x1="20" y1="74" x2="475" y2="74" stroke="#2a2a20" stroke-width="1"/>

  <!-- Row 1 -->
  <rect x="20" y="84" width="138" height="30" rx="7" fill="#141410"/>
  <rect x="20.5" y="84.5" width="137" height="29" rx="6.5" fill="none" stroke="#2a2a20"/>
  <text x="34" y="104" font-family="'Segoe UI', sans-serif" font-size="11" fill="#c9a84c">📱</text>
  <text x="50" y="104" font-family="'Segoe UI', sans-serif" font-size="11" fill="#e8e0d0">Instabroad Intern</text>

  <rect x="167" y="84" width="112" height="30" rx="7" fill="#141410"/>
  <rect x="167.5" y="84.5" width="111" height="29" rx="6.5" fill="none" stroke="#2a2a20"/>
  <text x="181" y="104" font-family="'Segoe UI', sans-serif" font-size="11" fill="#c9a84c">🎓</text>
  <text x="197" y="104" font-family="'Segoe UI', sans-serif" font-size="11" fill="#e8e0d0">CGPA 8.34</text>

  <rect x="288" y="84" width="112" height="30" rx="7" fill="#141410"/>
  <rect x="288.5" y="84.5" width="111" height="29" rx="6.5" fill="none" stroke="#2a2a20"/>
  <text x="302" y="104" font-family="'Segoe UI', sans-serif" font-size="11" fill="#c9a84c">🛠</text>
  <text x="318" y="104" font-family="'Segoe UI', sans-serif" font-size="11" fill="#e8e0d0">DevX Lead</text>

  <rect x="409" y="84" width="66" height="30" rx="7" fill="#141410"/>
  <rect x="409.5" y="84.5" width="65" height="29" rx="6.5" fill="none" stroke="#2a2a20"/>
  <text x="422" y="104" font-family="'Segoe UI', sans-serif" font-size="11" fill="#c9a84c">50+</text>
  <text x="446" y="104" font-family="'Segoe UI', sans-serif" font-size="10" fill="#888">devs</text>

  <!-- Row 2 -->
  <rect x="20" y="123" width="112" height="30" rx="7" fill="#141410"/>
  <rect x="20.5" y="123.5" width="111" height="29" rx="6.5" fill="none" stroke="#2a2a20"/>
  <text x="34" y="143" font-family="'Segoe UI', sans-serif" font-size="11" fill="#c9a84c">🏅</text>
  <text x="50" y="143" font-family="'Segoe UI', sans-serif" font-size="11" fill="#e8e0d0">CodeChef 3★</text>

  <rect x="141" y="123" width="105" height="30" rx="7" fill="#141410"/>
  <rect x="141.5" y="123.5" width="104" height="29" rx="6.5" fill="none" stroke="#2a2a20"/>
  <text x="155" y="143" font-family="'Segoe UI', sans-serif" font-size="11" fill="#c9a84c">💻</text>
  <text x="171" y="143" font-family="'Segoe UI', sans-serif" font-size="11" fill="#e8e0d0">150+ LeetCode</text>

  <rect x="255" y="123" width="112" height="30" rx="7" fill="#141410"/>
  <rect x="255.5" y="123.5" width="111" height="29" rx="6.5" fill="none" stroke="#2a2a20"/>
  <text x="269" y="143" font-family="'Segoe UI', sans-serif" font-size="11" fill="#c9a84c">🥈</text>
  <text x="285" y="143" font-family="'Segoe UI', sans-serif" font-size="11" fill="#e8e0d0">Silver Medal</text>

  <rect x="376" y="123" width="99" height="30" rx="7" fill="#141410"/>
  <rect x="376.5" y="123.5" width="98" height="29" rx="6.5" fill="none" stroke="#2a2a20"/>
  <text x="390" y="143" font-family="'Segoe UI', sans-serif" font-size="11" fill="#c9a84c">✦</text>
  <text x="403" y="143" font-family="'Segoe UI', sans-serif" font-size="11" fill="#e8e0d0">Open to Hire</text>
</svg>
